<?xml version="1.0" encoding="UTF-8" standalone="no"?>
<!DOCTYPE svg PUBLIC "-//W3C//DTD SVG 1.1//EN" "http://www.w3.org/Graphics/SVG/1.1/DTD/svg11.dtd">
<svg id="main" width="100%" height="100%" viewBox="0 0 31 31" version="1.1" xmlns="http://www.w3.org/2000/svg" xmlns:xlink="http://www.w3.org/1999/xlink" xml:space="preserve" xmlns:serif="http://www.serif.com/" style="fill-rule:evenodd;clip-rule:evenodd;stroke-linejoin:round;stroke-miterlimit:2;">
    <g transform="matrix(1,0,0,1,-5245,-6791)">
        <g transform="matrix(1,0,0,7.40741,4745.69,-654.929)">
            <g id="linkin" transform="matrix(0.750201,0,0,0.101277,273.128,1000.45)">
                <path d="M321.999,47.004C310.974,47.004 302.004,55.974 302.004,66.999C302.004,78.024 310.974,86.994 321.999,86.994C333.024,86.994 341.994,78.024 341.994,66.999C341.994,55.974 333.024,47.004 321.999,47.004ZM332.602,76.043C332.602,76.892 331.896,77.581 331.024,77.581L312.838,77.581C311.968,77.581 311.262,76.892 311.262,76.043L311.262,57.644C311.262,56.795 311.968,56.106 312.838,56.106L331.024,56.106C331.896,56.106 332.602,56.796 332.602,57.644L332.602,76.043ZM325.642,64.158C323.931,64.158 323.165,65.098 322.738,65.759L322.738,64.386L319.514,64.386C319.556,65.295 319.514,74.084 319.514,74.084L322.738,74.084L322.738,68.667C322.738,68.377 322.758,68.087 322.843,67.881C323.077,67.301 323.607,66.701 324.497,66.701C325.664,66.701 326.13,67.591 326.13,68.894L326.13,74.083L329.354,74.083L329.354,68.521C329.354,65.544 327.763,64.158 325.642,64.158ZM314.507,64.386L317.73,64.386L317.73,74.084L314.507,74.084L314.507,64.386ZM322.737,65.793L322.716,65.793C322.723,65.781 322.731,65.771 322.737,65.76L322.737,65.793ZM316.14,59.711C315.038,59.711 314.316,60.434 314.316,61.386C314.316,62.316 315.016,63.061 316.097,63.061L316.118,63.061C317.242,63.061 317.942,62.316 317.942,61.386C317.921,60.435 317.243,59.711 316.14,59.711Z" style="fill:white;"/>
            </g>
        </g>
    </g>
</svg>
