<?xml version="1.0" encoding="UTF-8" standalone="no"?>
<!DOCTYPE svg PUBLIC "-//W3C//DTD SVG 1.1//EN" "http://www.w3.org/Graphics/SVG/1.1/DTD/svg11.dtd">
<svg id="main" width="100%" height="100%" viewBox="0 0 20 21" version="1.1" xmlns="http://www.w3.org/2000/svg" xmlns:xlink="http://www.w3.org/1999/xlink" xml:space="preserve" xmlns:serif="http://www.serif.com/" style="fill-rule:evenodd;clip-rule:evenodd;stroke-linejoin:round;stroke-miterlimit:2;">
    <g transform="matrix(1,0,0,1,-5723,-5234)">
        <g transform="matrix(1,0,0,6.48148,4715,-838.08)">
            <g id="phone" transform="matrix(1,0,0,0.154286,-2802,935.434)">
                <path d="M3814.02,18.656C3815.62,21.8 3818.2,24.378 3821.34,25.978L3823.79,23.533C3824.1,23.222 3824.53,23.133 3824.92,23.256C3826.17,23.667 3827.5,23.889 3828.89,23.889C3829.18,23.889 3829.47,24.006 3829.67,24.214C3829.88,24.423 3830,24.705 3830,25L3830,28.889C3830,29.184 3829.88,29.466 3829.67,29.675C3829.47,29.883 3829.18,30 3828.89,30C3823.88,30 3819.07,28.01 3815.53,24.468C3811.99,20.925 3810,16.121 3810,11.111C3810,10.816 3810.12,10.534 3810.33,10.325C3810.53,10.117 3810.82,10 3811.11,10L3815,10C3815.29,10 3815.58,10.117 3815.79,10.325C3815.99,10.534 3816.11,10.816 3816.11,11.111C3816.11,12.5 3816.33,13.833 3816.74,15.078C3816.87,15.467 3816.78,15.9 3816.47,16.211L3814.02,18.656Z" style="fill:rgb(181,178,187);fill-rule:nonzero;"/>
            </g>
        </g>
    </g>
</svg>
