<?xml version="1.0" encoding="UTF-8" standalone="no"?>
<!DOCTYPE svg PUBLIC "-//W3C//DTD SVG 1.1//EN" "http://www.w3.org/Graphics/SVG/1.1/DTD/svg11.dtd">
<svg id="main" width="100%" height="100%" viewBox="0 0 31 31" version="1.1" xmlns="http://www.w3.org/2000/svg" xmlns:xlink="http://www.w3.org/1999/xlink" xml:space="preserve" xmlns:serif="http://www.serif.com/" style="fill-rule:evenodd;clip-rule:evenodd;stroke-linejoin:round;stroke-miterlimit:2;">
    <g transform="matrix(1,0,0,1,-5165,-6791)">
        <g transform="matrix(1,0,0,7.40741,4745.69,-654.929)">
            <g id="tweet" transform="matrix(0.750201,0,0,0.101277,231.389,1000.45)">
                <path d="M270.999,47.004C259.974,47.004 251.004,55.974 251.004,66.999C251.004,78.024 259.974,86.994 270.999,86.994C282.024,86.994 290.994,78.024 290.994,66.999C290.994,55.974 282.024,47.004 270.999,47.004ZM279.919,62.423C279.928,62.621 279.932,62.821 279.932,63.02C279.932,69.102 275.304,76.114 266.838,76.114C264.239,76.114 261.819,75.352 259.783,74.046C260.143,74.089 260.51,74.111 260.881,74.111C263.038,74.111 265.021,73.374 266.597,72.141C264.583,72.104 262.883,70.773 262.298,68.944C262.578,68.999 262.867,69.027 263.163,69.027C263.582,69.027 263.99,68.971 264.375,68.866C262.27,68.443 260.684,66.583 260.684,64.354C260.684,64.335 260.684,64.315 260.685,64.296C261.305,64.64 262.015,64.848 262.769,64.871C261.535,64.047 260.722,62.638 260.722,61.042C260.722,60.197 260.949,59.407 261.345,58.727C263.614,61.512 267.006,63.343 270.83,63.537C270.751,63.199 270.712,62.849 270.712,62.487C270.712,59.946 272.772,57.885 275.313,57.885C276.637,57.885 277.833,58.444 278.672,59.338C279.721,59.132 280.706,58.75 281.596,58.221C281.251,59.296 280.522,60.197 279.571,60.768C280.503,60.656 281.39,60.41 282.214,60.044C281.599,60.965 280.818,61.776 279.919,62.423Z" style="fill:white;fill-rule:nonzero;"/>
            </g>
        </g>
    </g>
</svg>
