<?xml version="1.0" encoding="UTF-8" standalone="no"?>
<!DOCTYPE svg PUBLIC "-//W3C//DTD SVG 1.1//EN" "http://www.w3.org/Graphics/SVG/1.1/DTD/svg11.dtd">
<svg id="main" width="100%" height="100%" viewBox="0 0 20 21" version="1.1" xmlns="http://www.w3.org/2000/svg" xmlns:xlink="http://www.w3.org/1999/xlink" xml:space="preserve" xmlns:serif="http://www.serif.com/" style="fill-rule:evenodd;clip-rule:evenodd;stroke-linejoin:round;stroke-miterlimit:2;">
    <g transform="matrix(1,0,0,1,-5303,-5234)">
        <g transform="matrix(1,0,0,6.48148,4295,-838.08)">
            <g id="people" transform="matrix(1,0,0,0.154286,998,926.794)">
                <path d="M20,66C21.326,66 22.598,66.527 23.536,67.465C24.473,68.402 25,69.674 25,71C25,72.326 24.473,73.598 23.536,74.536C22.598,75.473 21.326,76 20,76C18.674,76 17.402,75.473 16.465,74.536C15.527,73.598 15,72.326 15,71C15,69.674 15.527,68.402 16.465,67.465C17.402,66.527 18.674,66 20,66ZM20,78.5C25.525,78.5 30,80.738 30,83.5L30,86L10,86L10,83.5C10,80.738 14.475,78.5 20,78.5Z" style="fill:rgb(181,178,187);fill-rule:nonzero;"/>
            </g>
        </g>
    </g>
</svg>
